<svg width="55" height="12" viewBox="0 0 55 12" fill="none" xmlns="http://www.w3.org/2000/svg">
<path d="M0 1.70542L2.44502 5.24813H0L0 11.1136H2.65692L2.65692 0.234863L0 0.234863L0 1.70542Z" fill="#9A9A9A"/>
<path d="M11.3125 5.34743C12.372 4.96308 12.8936 4.17768 12.8936 2.99122C12.8936 2.07213 12.5676 1.38699 11.9319 0.91909C11.2962 0.4679 10.3671 0.23395 9.17722 0.23395L4.51538 0.23395L4.51538 8.2551L6.6344 11.1293H8.99792C9.55212 11.1293 10.0737 11.0792 10.5301 10.9957C11.0028 10.8954 11.4592 10.745 11.8993 10.5278C12.3394 10.3105 12.6817 9.99301 12.9425 9.57524C13.2033 9.15747 13.3174 8.65615 13.3174 8.05457C13.3174 6.65087 12.6491 5.74849 11.3125 5.34743ZM7.1886 2.4899H8.91641C9.27502 2.4899 9.56842 2.57345 9.78032 2.75727C9.99222 2.94109 10.09 3.19175 10.09 3.49254C10.09 3.81004 9.99222 4.04399 9.78032 4.22781C9.56842 4.41163 9.29132 4.49518 8.91641 4.49518L7.1886 4.47847L7.1886 2.4899ZM9.09572 8.87339H7.1723V6.60073L9.07942 6.60073C10.0248 6.60073 10.4975 6.98508 10.4975 7.73706C10.4975 8.48905 10.0248 8.87339 9.09572 8.87339ZM22.0706 7.72035L21.549 6.95166C22.6248 6.35007 23.2768 5.33072 23.2768 3.8936C23.2768 3.20846 23.1627 2.62358 22.9182 2.12226C22.6737 1.62094 22.3314 1.23659 21.9076 0.985932C21.4838 0.718561 21.0111 0.534743 20.5221 0.417768C20.0331 0.300793 19.4952 0.23395 18.9247 0.23395L14.6052 0.23395V1.70449L17.0502 5.24717H14.6052V11.1293H17.2621V5.54796L19.8538 9.30787C20.3917 9.9763 21.1741 11.1126 23.4235 11.1126L23.4235 8.40549C22.6574 8.40549 22.3314 8.12141 22.0706 7.72035ZM20.2287 4.91295C19.9842 5.13019 19.6582 5.24717 19.2344 5.24717H17.2621V2.72385H19.2344C19.6419 2.72385 19.9842 2.84082 20.2287 3.05806C20.4732 3.2753 20.5873 3.5928 20.5873 3.99386C20.5873 4.39492 20.4732 4.69571 20.2287 4.91295ZM51.7694 0.23395V5.24717H47.8248V0.23395L45.1679 0.23395V1.68778L47.6129 5.23045L45.1679 5.23045V11.1126H47.8248V5.54796L49.3896 7.82062H51.7694V11.1293H54.4264V0.23395L51.7694 0.23395ZM31.6062 6.80126C31.6062 8.12141 30.9542 8.77313 29.6339 8.77313C28.3136 8.77313 27.6616 8.12141 27.6616 6.80126V0.23395L25.0046 0.23395V6.96837C25.0046 7.75377 25.135 8.43891 25.4121 9.02379C25.6892 9.60866 26.0478 10.0599 26.5205 10.3941C26.9933 10.7283 27.4986 10.9622 28.0365 11.1126C28.5744 11.263 29.0145 11.3466 29.6339 11.3466C30.2533 11.3466 30.8238 11.263 31.378 11.1126C31.9159 10.9622 32.2745 10.7116 32.7472 10.3941C33.2199 10.0599 33.5785 9.60866 33.8556 9.02379C34.1327 8.43891 34.2631 7.75377 34.2631 6.96837V0.23395L31.6062 0.23395V6.80126ZM42.3806 5.36414C41.9731 5.11348 41.3211 4.89624 40.8484 4.69571C40.3757 4.49518 39.9356 4.32808 39.528 4.2111C39.1205 4.09413 38.7782 3.94373 38.5011 3.77662C38.224 3.60952 38.0936 3.40899 38.0936 3.19175C38.0936 2.74056 38.7456 2.37292 39.6585 2.35621C40.9788 2.3395 42.0872 2.67372 43 3.37557V0.868957C41.9731 0.284082 40.7995 0 39.414 0C38.2566 0 37.2949 0.267372 36.5451 0.818825C35.7953 1.37028 35.4204 2.15568 35.4204 3.19175C35.4204 3.91031 35.616 4.51189 35.9909 5.02993C36.3658 5.53125 36.8222 5.9156 37.3764 6.16626C37.9143 6.41692 38.6478 6.63416 39.1857 6.81797C39.7237 7.00179 40.1801 7.18561 40.5713 7.40285C40.9462 7.60338 41.1418 7.85404 41.1418 8.13812C41.1418 8.40549 41.0277 8.68957 40.7832 8.80655C40.5387 8.92352 40.1312 8.97366 39.577 8.97366C38.1588 8.97366 36.6918 8.5726 35.5345 7.75377V10.3774C36.7081 11.0458 38.061 11.38 39.6096 11.38C42.4458 11.38 43.8476 10.2771 43.8476 8.05457C43.8476 7.45298 43.7172 6.91824 43.4401 6.46705C43.1304 5.96573 42.7881 5.6148 42.3806 5.36414Z" fill="#9A9A9A"/>
</svg>
